<svg width="15" height="15" viewBox="0 0 15 15" fill="none" xmlns="http://www.w3.org/2000/svg">
<g clip-path="url(#clip0_93_3395)">
<path d="M7.5 11.7188C3.28125 11.7188 3.28125 7.5 3.28125 7.5H11.7188C11.7188 7.5 11.7188 11.7188 7.5 11.7188Z" fill="#9A9DAC" fill-opacity="0.6"/>
<path d="M6.21094 4.6875C6.21094 5.26999 5.73874 5.74219 5.15625 5.74219C4.57376 5.74219 4.10156 5.26999 4.10156 4.6875C4.10156 4.10501 4.57376 3.63281 5.15625 3.63281C5.73874 3.63281 6.21094 4.10501 6.21094 4.6875Z" fill="#9A9DAC" fill-opacity="0.6"/>
<path d="M2.69531 4.6875C2.69531 3.4578 3.69218 2.46094 4.92188 2.46094C6.15157 2.46094 7.14844 3.4578 7.14844 4.6875C7.14844 5.9172 6.15157 6.91406 4.92188 6.91406C3.69218 6.91406 2.69531 5.9172 2.69531 4.6875ZM4.92188 2.92969C3.95106 2.92969 3.16406 3.71669 3.16406 4.6875C3.16406 5.65831 3.95106 6.44531 4.92188 6.44531C5.89269 6.44531 6.67969 5.65831 6.67969 4.6875C6.67969 3.71669 5.89269 2.92969 4.92188 2.92969Z" fill="#9A9DAC" fill-opacity="0.6"/>
<path d="M9.84375 5.74219C10.4262 5.74219 10.8984 5.26999 10.8984 4.6875C10.8984 4.10501 10.4262 3.63281 9.84375 3.63281C9.26126 3.63281 8.78906 4.10501 8.78906 4.6875C8.78906 5.26999 9.26126 5.74219 9.84375 5.74219Z" fill="#9A9DAC" fill-opacity="0.6"/>
<path d="M7.85156 4.6875C7.85156 3.4578 8.84843 2.46094 10.0781 2.46094C11.3078 2.46094 12.3047 3.4578 12.3047 4.6875C12.3047 5.9172 11.3078 6.91406 10.0781 6.91406C8.84843 6.91406 7.85156 5.9172 7.85156 4.6875ZM10.0781 2.92969C9.10731 2.92969 8.32031 3.71669 8.32031 4.6875C8.32031 5.65831 9.10731 6.44531 10.0781 6.44531C11.0489 6.44531 11.8359 5.65831 11.8359 4.6875C11.8359 3.71669 11.0489 2.92969 10.0781 2.92969Z" fill="#9A9DAC" fill-opacity="0.6"/>
<path d="M7.49948 0.46875C5.20088 0.46875 3.42797 1.24415 2.23285 2.54192C1.04356 3.83337 0.46875 5.59583 0.46875 7.49948C0.46875 9.40312 1.04356 11.1656 2.23285 12.457C3.42797 13.7548 5.20088 14.5302 7.49948 14.5302C9.79808 14.5302 11.571 13.7548 12.7661 12.457C13.9554 11.1656 14.5302 9.40312 14.5302 7.49948C14.5302 5.59583 13.9554 3.83337 12.7661 2.54192C11.571 1.24415 9.79808 0.46875 7.49948 0.46875ZM1.40625 7.49948C1.40625 5.77904 1.92467 4.26052 2.92248 3.177C3.91447 2.0998 5.42255 1.40625 7.49948 1.40625C9.5764 1.40625 11.0845 2.0998 12.0765 3.177C13.0743 4.26052 13.5927 5.77904 13.5927 7.49948C13.5927 9.21991 13.0743 10.7384 12.0765 11.822C11.0845 12.8992 9.5764 13.5927 7.49948 13.5927C5.42255 13.5927 3.91447 12.8992 2.92248 11.822C1.92467 10.7384 1.40625 9.21991 1.40625 7.49948Z" fill="#9A9DAC" fill-opacity="0.6"/>
</g>
<defs>
<clipPath id="clip0_93_3395">
<rect width="15" height="15" fill="white"/>
</clipPath>
</defs>
</svg>
